<mxfile host="65bd71144e" pages="6">
    <diagram id="gfAtXQhV5r9wVB0oWboO" name="0.0.0">
        <mxGraphModel dx="1074" dy="790" grid="1" gridSize="10" guides="1" tooltips="1" connect="1" arrows="1" fold="1" page="1" pageScale="1" pageWidth="1100" pageHeight="850" math="0" shadow="0">
            <root>
                <mxCell id="0"/>
                <mxCell id="1" parent="0"/>
                <mxCell id="dC6gZEhCJ9nE78zMvqNp-1" value="SCOPO" style="ellipse;whiteSpace=wrap;html=1;aspect=fixed;sketch=1;fontFamily=Verdana;fontSize=21;fontColor=#808080;strokeColor=#808080;fillColor=none;" parent="1" vertex="1">
                    <mxGeometry x="440" y="180" width="190" height="190" as="geometry"/>
                </mxCell>
                <mxCell id="dC6gZEhCJ9nE78zMvqNp-2" value="MODELLAZIONE" style="ellipse;whiteSpace=wrap;html=1;aspect=fixed;sketch=1;fontFamily=Verdana;fontSize=21;fontColor=#808080;strokeColor=#808080;fillColor=none;" parent="1" vertex="1">
                    <mxGeometry x="630" y="460" width="190" height="190" as="geometry"/>
                </mxCell>
                <mxCell id="dC6gZEhCJ9nE78zMvqNp-3" value="SIMULAZIONE" style="ellipse;whiteSpace=wrap;html=1;aspect=fixed;sketch=1;fontFamily=Verdana;fontSize=21;fontColor=#808080;strokeColor=#808080;fillColor=none;" parent="1" vertex="1">
                    <mxGeometry x="260" y="460" width="190" height="190" as="geometry"/>
                </mxCell>
                <mxCell id="dC6gZEhCJ9nE78zMvqNp-4" value="" style="endArrow=classic;startArrow=classic;html=1;rounded=0;sketch=1;fontFamily=Verdana;fontSize=25;entryX=1;entryY=1;entryDx=0;entryDy=0;exitX=0.269;exitY=0.016;exitDx=0;exitDy=0;exitPerimeter=0;fontColor=#808080;strokeColor=#808080;" parent="1" source="dC6gZEhCJ9nE78zMvqNp-2" target="dC6gZEhCJ9nE78zMvqNp-1" edge="1">
                    <mxGeometry width="50" height="50" relative="1" as="geometry">
                        <mxPoint x="590" y="520" as="sourcePoint"/>
                        <mxPoint x="640" y="470" as="targetPoint"/>
                    </mxGeometry>
                </mxCell>
                <mxCell id="dC6gZEhCJ9nE78zMvqNp-5" value="" style="endArrow=classic;startArrow=classic;html=1;rounded=0;sketch=1;fontFamily=Verdana;fontSize=25;entryX=0;entryY=1;entryDx=0;entryDy=0;exitX=0.632;exitY=-0.012;exitDx=0;exitDy=0;exitPerimeter=0;fontColor=#808080;strokeColor=#808080;" parent="1" source="dC6gZEhCJ9nE78zMvqNp-3" target="dC6gZEhCJ9nE78zMvqNp-1" edge="1">
                    <mxGeometry width="50" height="50" relative="1" as="geometry">
                        <mxPoint x="750" y="310" as="sourcePoint"/>
                        <mxPoint x="671.0651442127194" y="189.13514421271907" as="targetPoint"/>
                    </mxGeometry>
                </mxCell>
                <mxCell id="dC6gZEhCJ9nE78zMvqNp-7" value="" style="endArrow=classic;startArrow=classic;html=1;rounded=0;sketch=1;fontFamily=Verdana;fontSize=25;entryX=1;entryY=0.5;entryDx=0;entryDy=0;exitX=0;exitY=0.5;exitDx=0;exitDy=0;fontColor=#808080;strokeColor=#808080;" parent="1" source="dC6gZEhCJ9nE78zMvqNp-2" target="dC6gZEhCJ9nE78zMvqNp-3" edge="1">
                    <mxGeometry width="50" height="50" relative="1" as="geometry">
                        <mxPoint x="520" y="500" as="sourcePoint"/>
                        <mxPoint x="441.06514421271936" y="379.13514421271907" as="targetPoint"/>
                    </mxGeometry>
                </mxCell>
            </root>
        </mxGraphModel>
    </diagram>
    <diagram id="uKKvOw5qiZQy2m1UavcJ" name="0.0.4">
        <mxGraphModel dx="1074" dy="790" grid="1" gridSize="10" guides="1" tooltips="1" connect="1" arrows="1" fold="1" page="1" pageScale="1" pageWidth="1100" pageHeight="850" math="0" shadow="0">
            <root>
                <mxCell id="4wsfySJXvWLKDO40QAnL-0"/>
                <mxCell id="4wsfySJXvWLKDO40QAnL-1" parent="4wsfySJXvWLKDO40QAnL-0"/>
                <mxCell id="4wsfySJXvWLKDO40QAnL-9" value="" style="rounded=1;whiteSpace=wrap;html=1;sketch=1;fontFamily=Verdana;fontSize=15;fontColor=#808080;strokeColor=#808080;fillColor=none;" parent="4wsfySJXvWLKDO40QAnL-1" vertex="1">
                    <mxGeometry x="255" y="230" width="590" height="390" as="geometry"/>
                </mxCell>
                <mxCell id="4wsfySJXvWLKDO40QAnL-6" style="edgeStyle=orthogonalEdgeStyle;rounded=1;orthogonalLoop=1;jettySize=auto;html=1;entryX=0.5;entryY=1;entryDx=0;entryDy=0;fontFamily=Verdana;fontSize=25;fontColor=#808080;strokeColor=#808080;curved=1;sketch=1;" parent="4wsfySJXvWLKDO40QAnL-1" source="4wsfySJXvWLKDO40QAnL-2" target="4wsfySJXvWLKDO40QAnL-4" edge="1">
                    <mxGeometry relative="1" as="geometry"/>
                </mxCell>
                <mxCell id="4wsfySJXvWLKDO40QAnL-8" value="Simulazione" style="edgeLabel;html=1;align=center;verticalAlign=middle;resizable=0;points=[];fontSize=15;fontFamily=Verdana;fontColor=#808080;labelBackgroundColor=none;" parent="4wsfySJXvWLKDO40QAnL-6" vertex="1" connectable="0">
                    <mxGeometry x="-0.1852" y="-7" relative="1" as="geometry">
                        <mxPoint x="-22" y="27" as="offset"/>
                    </mxGeometry>
                </mxCell>
                <mxCell id="4wsfySJXvWLKDO40QAnL-2" value="Modello" style="rounded=1;whiteSpace=wrap;html=1;fontFamily=Verdana;fontSize=25;fontColor=#808080;strokeColor=#808080;fillColor=none;sketch=1;" parent="4wsfySJXvWLKDO40QAnL-1" vertex="1">
                    <mxGeometry x="625" y="455" width="170" height="90" as="geometry"/>
                </mxCell>
                <mxCell id="4wsfySJXvWLKDO40QAnL-5" style="edgeStyle=orthogonalEdgeStyle;rounded=1;orthogonalLoop=1;jettySize=auto;html=1;fontFamily=Verdana;fontSize=25;fontColor=#808080;strokeColor=#808080;curved=1;sketch=1;" parent="4wsfySJXvWLKDO40QAnL-1" source="4wsfySJXvWLKDO40QAnL-4" target="4wsfySJXvWLKDO40QAnL-2" edge="1">
                    <mxGeometry relative="1" as="geometry"/>
                </mxCell>
                <mxCell id="4wsfySJXvWLKDO40QAnL-7" value="Simulazione" style="edgeLabel;html=1;align=center;verticalAlign=middle;resizable=0;points=[];fontSize=15;fontFamily=Verdana;fontColor=#808080;labelBackgroundColor=none;" parent="4wsfySJXvWLKDO40QAnL-5" vertex="1" connectable="0">
                    <mxGeometry x="-0.1852" y="-7" relative="1" as="geometry">
                        <mxPoint x="2" y="-22" as="offset"/>
                    </mxGeometry>
                </mxCell>
                <mxCell id="4wsfySJXvWLKDO40QAnL-4" value="Modello" style="rounded=1;whiteSpace=wrap;html=1;fontFamily=Verdana;fontSize=25;fontColor=#808080;strokeColor=#808080;fillColor=none;sketch=1;" parent="4wsfySJXvWLKDO40QAnL-1" vertex="1">
                    <mxGeometry x="305" y="330" width="170" height="90" as="geometry"/>
                </mxCell>
                <mxCell id="4wsfySJXvWLKDO40QAnL-10" value="Scopo" style="text;html=1;strokeColor=none;fillColor=none;align=center;verticalAlign=middle;whiteSpace=wrap;rounded=0;sketch=1;fontFamily=Verdana;fontSize=15;fontColor=#808080;" parent="4wsfySJXvWLKDO40QAnL-1" vertex="1">
                    <mxGeometry x="295" y="250" width="60" height="30" as="geometry"/>
                </mxCell>
            </root>
        </mxGraphModel>
    </diagram>
    <diagram id="7cSdFciT5S2-ThKHPNNL" name="0.0.4">
        <mxGraphModel dx="2174" dy="790" grid="1" gridSize="10" guides="1" tooltips="1" connect="1" arrows="1" fold="1" page="1" pageScale="1" pageWidth="1100" pageHeight="850" math="0" shadow="0">
            <root>
                <mxCell id="t-H5WbGwtiqeYeI_pOyu-0"/>
                <mxCell id="t-H5WbGwtiqeYeI_pOyu-1" parent="t-H5WbGwtiqeYeI_pOyu-0"/>
                <mxCell id="t-H5WbGwtiqeYeI_pOyu-22" value="" style="rounded=1;whiteSpace=wrap;html=1;labelBackgroundColor=none;sketch=1;fontFamily=Verdana;fontSize=20;fontColor=#808080;strokeColor=#808080;fillColor=none;" parent="t-H5WbGwtiqeYeI_pOyu-1" vertex="1">
                    <mxGeometry x="-230" y="180" width="1450" height="990" as="geometry"/>
                </mxCell>
                <mxCell id="t-H5WbGwtiqeYeI_pOyu-18" style="edgeStyle=orthogonalEdgeStyle;curved=1;rounded=1;sketch=1;orthogonalLoop=1;jettySize=auto;html=1;entryX=0.5;entryY=0;entryDx=0;entryDy=0;fontFamily=Verdana;fontSize=15;fontColor=#808080;strokeColor=#808080;" parent="t-H5WbGwtiqeYeI_pOyu-1" source="t-H5WbGwtiqeYeI_pOyu-2" target="t-H5WbGwtiqeYeI_pOyu-10" edge="1">
                    <mxGeometry relative="1" as="geometry"/>
                </mxCell>
                <mxCell id="t-H5WbGwtiqeYeI_pOyu-20" value="Simulazione" style="edgeLabel;html=1;align=center;verticalAlign=middle;resizable=0;points=[];fontSize=20;fontFamily=Verdana;fontColor=#808080;labelBackgroundColor=none;" parent="t-H5WbGwtiqeYeI_pOyu-18" vertex="1" connectable="0">
                    <mxGeometry x="-0.1475" y="-30" relative="1" as="geometry">
                        <mxPoint x="30" y="-35" as="offset"/>
                    </mxGeometry>
                </mxCell>
                <mxCell id="t-H5WbGwtiqeYeI_pOyu-2" value="" style="rounded=1;whiteSpace=wrap;html=1;sketch=1;fontFamily=Verdana;fontSize=15;fontColor=#808080;strokeColor=#808080;fillColor=none;" parent="t-H5WbGwtiqeYeI_pOyu-1" vertex="1">
                    <mxGeometry x="-160" y="280" width="590" height="390" as="geometry"/>
                </mxCell>
                <mxCell id="t-H5WbGwtiqeYeI_pOyu-3" style="edgeStyle=orthogonalEdgeStyle;rounded=1;orthogonalLoop=1;jettySize=auto;html=1;entryX=0.5;entryY=1;entryDx=0;entryDy=0;fontFamily=Verdana;fontSize=25;fontColor=#808080;strokeColor=#808080;curved=1;sketch=1;" parent="t-H5WbGwtiqeYeI_pOyu-1" source="t-H5WbGwtiqeYeI_pOyu-5" target="t-H5WbGwtiqeYeI_pOyu-8" edge="1">
                    <mxGeometry relative="1" as="geometry"/>
                </mxCell>
                <mxCell id="t-H5WbGwtiqeYeI_pOyu-4" value="Simulazione" style="edgeLabel;html=1;align=center;verticalAlign=middle;resizable=0;points=[];fontSize=15;fontFamily=Verdana;fontColor=#808080;labelBackgroundColor=none;" parent="t-H5WbGwtiqeYeI_pOyu-3" vertex="1" connectable="0">
                    <mxGeometry x="-0.1852" y="-7" relative="1" as="geometry">
                        <mxPoint x="-22" y="27" as="offset"/>
                    </mxGeometry>
                </mxCell>
                <mxCell id="t-H5WbGwtiqeYeI_pOyu-5" value="Modello" style="rounded=1;whiteSpace=wrap;html=1;fontFamily=Verdana;fontSize=25;fontColor=#808080;strokeColor=#808080;fillColor=none;sketch=1;" parent="t-H5WbGwtiqeYeI_pOyu-1" vertex="1">
                    <mxGeometry x="210" y="505" width="170" height="90" as="geometry"/>
                </mxCell>
                <mxCell id="t-H5WbGwtiqeYeI_pOyu-6" style="edgeStyle=orthogonalEdgeStyle;rounded=1;orthogonalLoop=1;jettySize=auto;html=1;fontFamily=Verdana;fontSize=25;fontColor=#808080;strokeColor=#808080;curved=1;sketch=1;" parent="t-H5WbGwtiqeYeI_pOyu-1" source="t-H5WbGwtiqeYeI_pOyu-8" target="t-H5WbGwtiqeYeI_pOyu-5" edge="1">
                    <mxGeometry relative="1" as="geometry"/>
                </mxCell>
                <mxCell id="t-H5WbGwtiqeYeI_pOyu-7" value="Simulazione" style="edgeLabel;html=1;align=center;verticalAlign=middle;resizable=0;points=[];fontSize=15;fontFamily=Verdana;fontColor=#808080;labelBackgroundColor=none;" parent="t-H5WbGwtiqeYeI_pOyu-6" vertex="1" connectable="0">
                    <mxGeometry x="-0.1852" y="-7" relative="1" as="geometry">
                        <mxPoint x="2" y="-22" as="offset"/>
                    </mxGeometry>
                </mxCell>
                <mxCell id="t-H5WbGwtiqeYeI_pOyu-8" value="Modello" style="rounded=1;whiteSpace=wrap;html=1;fontFamily=Verdana;fontSize=25;fontColor=#808080;strokeColor=#808080;fillColor=none;sketch=1;" parent="t-H5WbGwtiqeYeI_pOyu-1" vertex="1">
                    <mxGeometry x="-110" y="380" width="170" height="90" as="geometry"/>
                </mxCell>
                <mxCell id="t-H5WbGwtiqeYeI_pOyu-9" value="Scopo" style="text;html=1;strokeColor=none;fillColor=none;align=center;verticalAlign=middle;whiteSpace=wrap;rounded=0;sketch=1;fontFamily=Verdana;fontSize=15;fontColor=#808080;" parent="t-H5WbGwtiqeYeI_pOyu-1" vertex="1">
                    <mxGeometry x="-120" y="300" width="60" height="30" as="geometry"/>
                </mxCell>
                <mxCell id="t-H5WbGwtiqeYeI_pOyu-19" style="edgeStyle=orthogonalEdgeStyle;curved=1;rounded=1;sketch=1;orthogonalLoop=1;jettySize=auto;html=1;entryX=0.5;entryY=1;entryDx=0;entryDy=0;fontFamily=Verdana;fontSize=15;fontColor=#808080;strokeColor=#808080;" parent="t-H5WbGwtiqeYeI_pOyu-1" source="t-H5WbGwtiqeYeI_pOyu-10" target="t-H5WbGwtiqeYeI_pOyu-2" edge="1">
                    <mxGeometry relative="1" as="geometry"/>
                </mxCell>
                <mxCell id="t-H5WbGwtiqeYeI_pOyu-21" value="Simulazione" style="edgeLabel;html=1;align=center;verticalAlign=middle;resizable=0;points=[];fontSize=20;fontFamily=Verdana;fontColor=#808080;labelBackgroundColor=none;" parent="t-H5WbGwtiqeYeI_pOyu-19" vertex="1" connectable="0">
                    <mxGeometry x="-0.1366" y="-32" relative="1" as="geometry">
                        <mxPoint x="-27" y="37" as="offset"/>
                    </mxGeometry>
                </mxCell>
                <mxCell id="t-H5WbGwtiqeYeI_pOyu-10" value="" style="rounded=1;whiteSpace=wrap;html=1;sketch=1;fontFamily=Verdana;fontSize=15;fontColor=#808080;strokeColor=#808080;fillColor=none;" parent="t-H5WbGwtiqeYeI_pOyu-1" vertex="1">
                    <mxGeometry x="550" y="670" width="590" height="390" as="geometry"/>
                </mxCell>
                <mxCell id="t-H5WbGwtiqeYeI_pOyu-11" style="edgeStyle=orthogonalEdgeStyle;rounded=1;orthogonalLoop=1;jettySize=auto;html=1;entryX=0.5;entryY=1;entryDx=0;entryDy=0;fontFamily=Verdana;fontSize=25;fontColor=#808080;strokeColor=#808080;curved=1;sketch=1;" parent="t-H5WbGwtiqeYeI_pOyu-1" source="t-H5WbGwtiqeYeI_pOyu-13" target="t-H5WbGwtiqeYeI_pOyu-16" edge="1">
                    <mxGeometry relative="1" as="geometry"/>
                </mxCell>
                <mxCell id="t-H5WbGwtiqeYeI_pOyu-12" value="Simulazione" style="edgeLabel;html=1;align=center;verticalAlign=middle;resizable=0;points=[];fontSize=15;fontFamily=Verdana;fontColor=#808080;labelBackgroundColor=none;" parent="t-H5WbGwtiqeYeI_pOyu-11" vertex="1" connectable="0">
                    <mxGeometry x="-0.1852" y="-7" relative="1" as="geometry">
                        <mxPoint x="-22" y="27" as="offset"/>
                    </mxGeometry>
                </mxCell>
                <mxCell id="t-H5WbGwtiqeYeI_pOyu-13" value="Modello" style="rounded=1;whiteSpace=wrap;html=1;fontFamily=Verdana;fontSize=25;fontColor=#808080;strokeColor=#808080;fillColor=none;sketch=1;" parent="t-H5WbGwtiqeYeI_pOyu-1" vertex="1">
                    <mxGeometry x="920" y="895" width="170" height="90" as="geometry"/>
                </mxCell>
                <mxCell id="t-H5WbGwtiqeYeI_pOyu-14" style="edgeStyle=orthogonalEdgeStyle;rounded=1;orthogonalLoop=1;jettySize=auto;html=1;fontFamily=Verdana;fontSize=25;fontColor=#808080;strokeColor=#808080;curved=1;sketch=1;" parent="t-H5WbGwtiqeYeI_pOyu-1" source="t-H5WbGwtiqeYeI_pOyu-16" target="t-H5WbGwtiqeYeI_pOyu-13" edge="1">
                    <mxGeometry relative="1" as="geometry"/>
                </mxCell>
                <mxCell id="t-H5WbGwtiqeYeI_pOyu-15" value="Simulazione" style="edgeLabel;html=1;align=center;verticalAlign=middle;resizable=0;points=[];fontSize=15;fontFamily=Verdana;fontColor=#808080;labelBackgroundColor=none;" parent="t-H5WbGwtiqeYeI_pOyu-14" vertex="1" connectable="0">
                    <mxGeometry x="-0.1852" y="-7" relative="1" as="geometry">
                        <mxPoint x="2" y="-22" as="offset"/>
                    </mxGeometry>
                </mxCell>
                <mxCell id="t-H5WbGwtiqeYeI_pOyu-16" value="Modello" style="rounded=1;whiteSpace=wrap;html=1;fontFamily=Verdana;fontSize=25;fontColor=#808080;strokeColor=#808080;fillColor=none;sketch=1;" parent="t-H5WbGwtiqeYeI_pOyu-1" vertex="1">
                    <mxGeometry x="600" y="770" width="170" height="90" as="geometry"/>
                </mxCell>
                <mxCell id="t-H5WbGwtiqeYeI_pOyu-17" value="Scopo" style="text;html=1;strokeColor=none;fillColor=none;align=center;verticalAlign=middle;whiteSpace=wrap;rounded=0;sketch=1;fontFamily=Verdana;fontSize=15;fontColor=#808080;" parent="t-H5WbGwtiqeYeI_pOyu-1" vertex="1">
                    <mxGeometry x="590" y="690" width="60" height="30" as="geometry"/>
                </mxCell>
                <mxCell id="t-H5WbGwtiqeYeI_pOyu-23" value="Scopo" style="text;html=1;strokeColor=none;fillColor=none;align=center;verticalAlign=middle;whiteSpace=wrap;rounded=0;labelBackgroundColor=none;sketch=1;fontFamily=Verdana;fontSize=20;fontColor=#808080;" parent="t-H5WbGwtiqeYeI_pOyu-1" vertex="1">
                    <mxGeometry x="-110" y="210" width="60" height="30" as="geometry"/>
                </mxCell>
            </root>
        </mxGraphModel>
    </diagram>
    <diagram id="0h7IQet-czmlYTOyoCc7" name="0.0.2.0.0">
        <mxGraphModel dx="1074" dy="790" grid="1" gridSize="10" guides="1" tooltips="1" connect="1" arrows="1" fold="1" page="1" pageScale="1" pageWidth="1100" pageHeight="850" math="0" shadow="0">
            <root>
                <mxCell id="5V6WEdQYPV-L1rjxFJAA-0"/>
                <mxCell id="5V6WEdQYPV-L1rjxFJAA-1" parent="5V6WEdQYPV-L1rjxFJAA-0"/>
                <mxCell id="5V6WEdQYPV-L1rjxFJAA-2" value="COMMENT" style="swimlane;fontStyle=1;align=center;verticalAlign=top;childLayout=stackLayout;horizontal=1;startSize=26;horizontalStack=0;resizeParent=1;resizeParentMax=0;resizeLast=0;collapsible=1;marginBottom=0;sketch=1;rounded=1;strokeColor=#808080;fontColor=#808080;" parent="5V6WEdQYPV-L1rjxFJAA-1" vertex="1">
                    <mxGeometry x="558" y="369" width="260" height="112" as="geometry"/>
                </mxCell>
                <mxCell id="5V6WEdQYPV-L1rjxFJAA-3" value="ID: GUID" style="text;strokeColor=#808080;fillColor=none;align=left;verticalAlign=top;spacingLeft=4;spacingRight=4;overflow=hidden;rotatable=0;points=[[0,0.5],[1,0.5]];portConstraint=eastwest;sketch=1;rounded=1;fontColor=#808080;" parent="5V6WEdQYPV-L1rjxFJAA-2" vertex="1">
                    <mxGeometry y="26" width="260" height="26" as="geometry"/>
                </mxCell>
                <mxCell id="5V6WEdQYPV-L1rjxFJAA-4" value="" style="line;strokeWidth=1;fillColor=none;align=left;verticalAlign=middle;spacingTop=-1;spacingLeft=3;spacingRight=3;rotatable=0;labelPosition=right;points=[];portConstraint=eastwest;sketch=1;rounded=1;strokeColor=#808080;fontColor=#808080;" parent="5V6WEdQYPV-L1rjxFJAA-2" vertex="1">
                    <mxGeometry y="52" width="260" height="8" as="geometry"/>
                </mxCell>
                <mxCell id="5V6WEdQYPV-L1rjxFJAA-5" value="POSTID: GUID" style="text;strokeColor=#808080;fillColor=none;align=left;verticalAlign=top;spacingLeft=4;spacingRight=4;overflow=hidden;rotatable=0;points=[[0,0.5],[1,0.5]];portConstraint=eastwest;sketch=1;rounded=1;fontColor=#808080;" parent="5V6WEdQYPV-L1rjxFJAA-2" vertex="1">
                    <mxGeometry y="60" width="260" height="26" as="geometry"/>
                </mxCell>
                <mxCell id="5V6WEdQYPV-L1rjxFJAA-10" value="CONTENTS: STRING" style="text;strokeColor=#808080;fillColor=none;align=left;verticalAlign=top;spacingLeft=4;spacingRight=4;overflow=hidden;rotatable=0;points=[[0,0.5],[1,0.5]];portConstraint=eastwest;sketch=1;rounded=1;fontColor=#808080;" parent="5V6WEdQYPV-L1rjxFJAA-2" vertex="1">
                    <mxGeometry y="86" width="260" height="26" as="geometry"/>
                </mxCell>
                <mxCell id="5V6WEdQYPV-L1rjxFJAA-6" value="POST" style="swimlane;fontStyle=1;align=center;verticalAlign=top;childLayout=stackLayout;horizontal=1;startSize=26;horizontalStack=0;resizeParent=1;resizeParentMax=0;resizeLast=0;collapsible=1;marginBottom=0;sketch=1;rounded=1;strokeColor=#808080;fontColor=#808080;" parent="5V6WEdQYPV-L1rjxFJAA-1" vertex="1">
                    <mxGeometry x="283" y="369" width="160" height="86" as="geometry"/>
                </mxCell>
                <mxCell id="5V6WEdQYPV-L1rjxFJAA-7" value="ID: GUID" style="text;strokeColor=#808080;fillColor=none;align=left;verticalAlign=top;spacingLeft=4;spacingRight=4;overflow=hidden;rotatable=0;points=[[0,0.5],[1,0.5]];portConstraint=eastwest;sketch=1;rounded=1;fontColor=#808080;" parent="5V6WEdQYPV-L1rjxFJAA-6" vertex="1">
                    <mxGeometry y="26" width="160" height="26" as="geometry"/>
                </mxCell>
                <mxCell id="5V6WEdQYPV-L1rjxFJAA-8" value="" style="line;strokeWidth=1;fillColor=none;align=left;verticalAlign=middle;spacingTop=-1;spacingLeft=3;spacingRight=3;rotatable=0;labelPosition=right;points=[];portConstraint=eastwest;sketch=1;rounded=1;strokeColor=#808080;fontColor=#808080;" parent="5V6WEdQYPV-L1rjxFJAA-6" vertex="1">
                    <mxGeometry y="52" width="160" height="8" as="geometry"/>
                </mxCell>
                <mxCell id="5V6WEdQYPV-L1rjxFJAA-9" value="CONTENTS: STRING" style="text;strokeColor=#808080;fillColor=none;align=left;verticalAlign=top;spacingLeft=4;spacingRight=4;overflow=hidden;rotatable=0;points=[[0,0.5],[1,0.5]];portConstraint=eastwest;sketch=1;rounded=1;fontColor=#808080;" parent="5V6WEdQYPV-L1rjxFJAA-6" vertex="1">
                    <mxGeometry y="60" width="160" height="26" as="geometry"/>
                </mxCell>
                <mxCell id="5V6WEdQYPV-L1rjxFJAA-14" style="edgeStyle=orthogonalEdgeStyle;rounded=1;sketch=1;html=1;entryX=1;entryY=0.5;entryDx=0;entryDy=0;strokeColor=#808080;fontColor=#808080;" parent="5V6WEdQYPV-L1rjxFJAA-1" source="5V6WEdQYPV-L1rjxFJAA-5" target="5V6WEdQYPV-L1rjxFJAA-7" edge="1">
                    <mxGeometry relative="1" as="geometry"/>
                </mxCell>
            </root>
        </mxGraphModel>
    </diagram>
    <diagram id="WWSs2SBsUbJQPWL5pVxZ" name="0.0.2.0.2">
        <mxGraphModel dx="1074" dy="790" grid="1" gridSize="10" guides="1" tooltips="1" connect="1" arrows="1" fold="1" page="1" pageScale="1" pageWidth="1100" pageHeight="850" math="0" shadow="0">
            <root>
                <mxCell id="hScKCsoTzPhqZUNZysch-0"/>
                <mxCell id="hScKCsoTzPhqZUNZysch-1" parent="hScKCsoTzPhqZUNZysch-0"/>
                <mxCell id="B7KoRMFnUkK3WMrfj_sW-0" value="STUDENT" style="swimlane;fontStyle=1;align=center;verticalAlign=top;childLayout=stackLayout;horizontal=1;startSize=26;horizontalStack=0;resizeParent=1;resizeParentMax=0;resizeLast=0;collapsible=1;marginBottom=0;sketch=1;rounded=1;strokeColor=#808080;fontColor=#808080;" parent="hScKCsoTzPhqZUNZysch-1" vertex="1">
                    <mxGeometry x="670" y="369" width="160" height="86" as="geometry"/>
                </mxCell>
                <mxCell id="B7KoRMFnUkK3WMrfj_sW-1" value="ID: GUID" style="text;strokeColor=#808080;fillColor=none;align=left;verticalAlign=top;spacingLeft=4;spacingRight=4;overflow=hidden;rotatable=0;points=[[0,0.5],[1,0.5]];portConstraint=eastwest;sketch=1;rounded=1;fontColor=#808080;" parent="B7KoRMFnUkK3WMrfj_sW-0" vertex="1">
                    <mxGeometry y="26" width="160" height="26" as="geometry"/>
                </mxCell>
                <mxCell id="B7KoRMFnUkK3WMrfj_sW-2" value="" style="line;strokeWidth=1;fillColor=none;align=left;verticalAlign=middle;spacingTop=-1;spacingLeft=3;spacingRight=3;rotatable=0;labelPosition=right;points=[];portConstraint=eastwest;sketch=1;rounded=1;strokeColor=#808080;fontColor=#808080;" parent="B7KoRMFnUkK3WMrfj_sW-0" vertex="1">
                    <mxGeometry y="52" width="160" height="8" as="geometry"/>
                </mxCell>
                <mxCell id="B7KoRMFnUkK3WMrfj_sW-4" value="NAME: STRING" style="text;strokeColor=#808080;fillColor=none;align=left;verticalAlign=top;spacingLeft=4;spacingRight=4;overflow=hidden;rotatable=0;points=[[0,0.5],[1,0.5]];portConstraint=eastwest;sketch=1;rounded=1;fontColor=#808080;" parent="B7KoRMFnUkK3WMrfj_sW-0" vertex="1">
                    <mxGeometry y="60" width="160" height="26" as="geometry"/>
                </mxCell>
                <mxCell id="B7KoRMFnUkK3WMrfj_sW-5" value="PARENT" style="swimlane;fontStyle=1;align=center;verticalAlign=top;childLayout=stackLayout;horizontal=1;startSize=26;horizontalStack=0;resizeParent=1;resizeParentMax=0;resizeLast=0;collapsible=1;marginBottom=0;sketch=1;rounded=1;strokeColor=#808080;fontColor=#808080;" parent="hScKCsoTzPhqZUNZysch-1" vertex="1">
                    <mxGeometry x="180" y="369" width="160" height="86" as="geometry"/>
                </mxCell>
                <mxCell id="B7KoRMFnUkK3WMrfj_sW-6" value="ID: GUID" style="text;strokeColor=#808080;fillColor=none;align=left;verticalAlign=top;spacingLeft=4;spacingRight=4;overflow=hidden;rotatable=0;points=[[0,0.5],[1,0.5]];portConstraint=eastwest;sketch=1;rounded=1;fontColor=#808080;" parent="B7KoRMFnUkK3WMrfj_sW-5" vertex="1">
                    <mxGeometry y="26" width="160" height="26" as="geometry"/>
                </mxCell>
                <mxCell id="B7KoRMFnUkK3WMrfj_sW-7" value="" style="line;strokeWidth=1;fillColor=none;align=left;verticalAlign=middle;spacingTop=-1;spacingLeft=3;spacingRight=3;rotatable=0;labelPosition=right;points=[];portConstraint=eastwest;sketch=1;rounded=1;strokeColor=#808080;fontColor=#808080;" parent="B7KoRMFnUkK3WMrfj_sW-5" vertex="1">
                    <mxGeometry y="52" width="160" height="8" as="geometry"/>
                </mxCell>
                <mxCell id="B7KoRMFnUkK3WMrfj_sW-8" value="NAME: STRING" style="text;strokeColor=#808080;fillColor=none;align=left;verticalAlign=top;spacingLeft=4;spacingRight=4;overflow=hidden;rotatable=0;points=[[0,0.5],[1,0.5]];portConstraint=eastwest;sketch=1;rounded=1;fontColor=#808080;" parent="B7KoRMFnUkK3WMrfj_sW-5" vertex="1">
                    <mxGeometry y="60" width="160" height="26" as="geometry"/>
                </mxCell>
                <mxCell id="B7KoRMFnUkK3WMrfj_sW-10" value="STUDENT PARENT" style="swimlane;fontStyle=1;align=center;verticalAlign=top;childLayout=stackLayout;horizontal=1;startSize=26;horizontalStack=0;resizeParent=1;resizeParentMax=0;resizeLast=0;collapsible=1;marginBottom=0;sketch=1;rounded=1;strokeColor=#808080;fontColor=#808080;" parent="hScKCsoTzPhqZUNZysch-1" vertex="1">
                    <mxGeometry x="420" y="369" width="160" height="86" as="geometry"/>
                </mxCell>
                <mxCell id="B7KoRMFnUkK3WMrfj_sW-11" value="STUDENTID: GUID" style="text;strokeColor=#808080;fillColor=none;align=left;verticalAlign=top;spacingLeft=4;spacingRight=4;overflow=hidden;rotatable=0;points=[[0,0.5],[1,0.5]];portConstraint=eastwest;sketch=1;rounded=1;fontColor=#808080;" parent="B7KoRMFnUkK3WMrfj_sW-10" vertex="1">
                    <mxGeometry y="26" width="160" height="26" as="geometry"/>
                </mxCell>
                <mxCell id="B7KoRMFnUkK3WMrfj_sW-12" value="" style="line;strokeWidth=1;fillColor=none;align=left;verticalAlign=middle;spacingTop=-1;spacingLeft=3;spacingRight=3;rotatable=0;labelPosition=right;points=[];portConstraint=eastwest;sketch=1;rounded=1;strokeColor=#808080;fontColor=#808080;" parent="B7KoRMFnUkK3WMrfj_sW-10" vertex="1">
                    <mxGeometry y="52" width="160" height="8" as="geometry"/>
                </mxCell>
                <mxCell id="B7KoRMFnUkK3WMrfj_sW-13" value="PARENTID: GUID" style="text;strokeColor=#808080;fillColor=none;align=left;verticalAlign=top;spacingLeft=4;spacingRight=4;overflow=hidden;rotatable=0;points=[[0,0.5],[1,0.5]];portConstraint=eastwest;sketch=1;rounded=1;fontColor=#808080;" parent="B7KoRMFnUkK3WMrfj_sW-10" vertex="1">
                    <mxGeometry y="60" width="160" height="26" as="geometry"/>
                </mxCell>
                <mxCell id="B7KoRMFnUkK3WMrfj_sW-14" style="edgeStyle=orthogonalEdgeStyle;rounded=0;orthogonalLoop=1;jettySize=auto;html=1;entryX=0;entryY=0.5;entryDx=0;entryDy=0;sketch=1;curved=1;strokeColor=#808080;" parent="hScKCsoTzPhqZUNZysch-1" source="B7KoRMFnUkK3WMrfj_sW-11" target="B7KoRMFnUkK3WMrfj_sW-1" edge="1">
                    <mxGeometry relative="1" as="geometry"/>
                </mxCell>
                <mxCell id="B7KoRMFnUkK3WMrfj_sW-15" style="edgeStyle=orthogonalEdgeStyle;rounded=0;orthogonalLoop=1;jettySize=auto;html=1;entryX=1;entryY=0.5;entryDx=0;entryDy=0;sketch=1;curved=1;strokeColor=#808080;" parent="hScKCsoTzPhqZUNZysch-1" source="B7KoRMFnUkK3WMrfj_sW-13" target="B7KoRMFnUkK3WMrfj_sW-6" edge="1">
                    <mxGeometry relative="1" as="geometry"/>
                </mxCell>
            </root>
        </mxGraphModel>
    </diagram>
    <diagram name="0.0.2.0.3 Hybrid Models" id="PhXh3b97Tm_Hk51CDSKh">
        <mxGraphModel dx="1074" dy="790" grid="1" gridSize="10" guides="1" tooltips="1" connect="1" arrows="1" fold="1" page="1" pageScale="1" pageWidth="1100" pageHeight="850" math="0" shadow="0">
            <root>
                <mxCell id="aE1tdGKyQat_Dk-pjLRH-0"/>
                <mxCell id="aE1tdGKyQat_Dk-pjLRH-1" parent="aE1tdGKyQat_Dk-pjLRH-0"/>
                <mxCell id="aE1tdGKyQat_Dk-pjLRH-2" value="MEMBER" style="swimlane;fontStyle=1;align=center;verticalAlign=top;childLayout=stackLayout;horizontal=1;startSize=26;horizontalStack=0;resizeParent=1;resizeParentMax=0;resizeLast=0;collapsible=1;marginBottom=0;sketch=1;rounded=1;strokeColor=#808080;fontColor=#808080;" parent="aE1tdGKyQat_Dk-pjLRH-1" vertex="1">
                    <mxGeometry x="670" y="369" width="160" height="86" as="geometry"/>
                </mxCell>
                <mxCell id="aE1tdGKyQat_Dk-pjLRH-3" value="ID: GUID" style="text;strokeColor=#808080;fillColor=none;align=left;verticalAlign=top;spacingLeft=4;spacingRight=4;overflow=hidden;rotatable=0;points=[[0,0.5],[1,0.5]];portConstraint=eastwest;sketch=1;rounded=1;fontColor=#808080;" parent="aE1tdGKyQat_Dk-pjLRH-2" vertex="1">
                    <mxGeometry y="26" width="160" height="26" as="geometry"/>
                </mxCell>
                <mxCell id="aE1tdGKyQat_Dk-pjLRH-4" value="" style="line;strokeWidth=1;fillColor=none;align=left;verticalAlign=middle;spacingTop=-1;spacingLeft=3;spacingRight=3;rotatable=0;labelPosition=right;points=[];portConstraint=eastwest;sketch=1;rounded=1;strokeColor=#808080;fontColor=#808080;" parent="aE1tdGKyQat_Dk-pjLRH-2" vertex="1">
                    <mxGeometry y="52" width="160" height="8" as="geometry"/>
                </mxCell>
                <mxCell id="aE1tdGKyQat_Dk-pjLRH-5" value="NAME: STRING" style="text;strokeColor=#808080;fillColor=none;align=left;verticalAlign=top;spacingLeft=4;spacingRight=4;overflow=hidden;rotatable=0;points=[[0,0.5],[1,0.5]];portConstraint=eastwest;sketch=1;rounded=1;fontColor=#808080;" parent="aE1tdGKyQat_Dk-pjLRH-2" vertex="1">
                    <mxGeometry y="60" width="160" height="26" as="geometry"/>
                </mxCell>
                <mxCell id="aE1tdGKyQat_Dk-pjLRH-6" value="GROUP" style="swimlane;fontStyle=1;align=center;verticalAlign=top;childLayout=stackLayout;horizontal=1;startSize=26;horizontalStack=0;resizeParent=1;resizeParentMax=0;resizeLast=0;collapsible=1;marginBottom=0;sketch=1;rounded=1;strokeColor=#808080;fontColor=#808080;" parent="aE1tdGKyQat_Dk-pjLRH-1" vertex="1">
                    <mxGeometry x="180" y="369" width="160" height="86" as="geometry"/>
                </mxCell>
                <mxCell id="aE1tdGKyQat_Dk-pjLRH-7" value="ID: GUID" style="text;strokeColor=#808080;fillColor=none;align=left;verticalAlign=top;spacingLeft=4;spacingRight=4;overflow=hidden;rotatable=0;points=[[0,0.5],[1,0.5]];portConstraint=eastwest;sketch=1;rounded=1;fontColor=#808080;" parent="aE1tdGKyQat_Dk-pjLRH-6" vertex="1">
                    <mxGeometry y="26" width="160" height="26" as="geometry"/>
                </mxCell>
                <mxCell id="aE1tdGKyQat_Dk-pjLRH-8" value="" style="line;strokeWidth=1;fillColor=none;align=left;verticalAlign=middle;spacingTop=-1;spacingLeft=3;spacingRight=3;rotatable=0;labelPosition=right;points=[];portConstraint=eastwest;sketch=1;rounded=1;strokeColor=#808080;fontColor=#808080;" parent="aE1tdGKyQat_Dk-pjLRH-6" vertex="1">
                    <mxGeometry y="52" width="160" height="8" as="geometry"/>
                </mxCell>
                <mxCell id="aE1tdGKyQat_Dk-pjLRH-9" value="NAME: STRING" style="text;strokeColor=#808080;fillColor=none;align=left;verticalAlign=top;spacingLeft=4;spacingRight=4;overflow=hidden;rotatable=0;points=[[0,0.5],[1,0.5]];portConstraint=eastwest;sketch=1;rounded=1;fontColor=#808080;" parent="aE1tdGKyQat_Dk-pjLRH-6" vertex="1">
                    <mxGeometry y="60" width="160" height="26" as="geometry"/>
                </mxCell>
                <mxCell id="aE1tdGKyQat_Dk-pjLRH-10" value="GROUP MEMBERSHIPS" style="swimlane;fontStyle=1;align=center;verticalAlign=top;childLayout=stackLayout;horizontal=1;startSize=26;horizontalStack=0;resizeParent=1;resizeParentMax=0;resizeLast=0;collapsible=1;marginBottom=0;sketch=1;rounded=1;strokeColor=#808080;fontColor=#808080;" parent="aE1tdGKyQat_Dk-pjLRH-1" vertex="1">
                    <mxGeometry x="420" y="369" width="160" height="138" as="geometry"/>
                </mxCell>
                <mxCell id="aE1tdGKyQat_Dk-pjLRH-11" value="MEMBERID: GUID" style="text;strokeColor=#808080;fillColor=none;align=left;verticalAlign=top;spacingLeft=4;spacingRight=4;overflow=hidden;rotatable=0;points=[[0,0.5],[1,0.5]];portConstraint=eastwest;sketch=1;rounded=1;fontColor=#808080;" parent="aE1tdGKyQat_Dk-pjLRH-10" vertex="1">
                    <mxGeometry y="26" width="160" height="26" as="geometry"/>
                </mxCell>
                <mxCell id="aE1tdGKyQat_Dk-pjLRH-12" value="" style="line;strokeWidth=1;fillColor=none;align=left;verticalAlign=middle;spacingTop=-1;spacingLeft=3;spacingRight=3;rotatable=0;labelPosition=right;points=[];portConstraint=eastwest;sketch=1;rounded=1;strokeColor=#808080;fontColor=#808080;" parent="aE1tdGKyQat_Dk-pjLRH-10" vertex="1">
                    <mxGeometry y="52" width="160" height="8" as="geometry"/>
                </mxCell>
                <mxCell id="aE1tdGKyQat_Dk-pjLRH-13" value="GROUPID: GUID" style="text;strokeColor=#808080;fillColor=none;align=left;verticalAlign=top;spacingLeft=4;spacingRight=4;overflow=hidden;rotatable=0;points=[[0,0.5],[1,0.5]];portConstraint=eastwest;sketch=1;rounded=1;fontColor=#808080;" parent="aE1tdGKyQat_Dk-pjLRH-10" vertex="1">
                    <mxGeometry y="60" width="160" height="26" as="geometry"/>
                </mxCell>
                <mxCell id="txbFdNZwH1H5Qik_kpll-0" value="STATUS: ENUM" style="text;strokeColor=#808080;fillColor=none;align=left;verticalAlign=top;spacingLeft=4;spacingRight=4;overflow=hidden;rotatable=0;points=[[0,0.5],[1,0.5]];portConstraint=eastwest;sketch=1;rounded=1;fontColor=#808080;" parent="aE1tdGKyQat_Dk-pjLRH-10" vertex="1">
                    <mxGeometry y="86" width="160" height="26" as="geometry"/>
                </mxCell>
                <mxCell id="txbFdNZwH1H5Qik_kpll-1" value="DETAILS: STRING" style="text;strokeColor=#808080;fillColor=none;align=left;verticalAlign=top;spacingLeft=4;spacingRight=4;overflow=hidden;rotatable=0;points=[[0,0.5],[1,0.5]];portConstraint=eastwest;sketch=1;rounded=1;fontColor=#808080;" parent="aE1tdGKyQat_Dk-pjLRH-10" vertex="1">
                    <mxGeometry y="112" width="160" height="26" as="geometry"/>
                </mxCell>
                <mxCell id="aE1tdGKyQat_Dk-pjLRH-14" style="edgeStyle=orthogonalEdgeStyle;rounded=0;orthogonalLoop=1;jettySize=auto;html=1;entryX=0;entryY=0.5;entryDx=0;entryDy=0;sketch=1;curved=1;strokeColor=#808080;" parent="aE1tdGKyQat_Dk-pjLRH-1" source="aE1tdGKyQat_Dk-pjLRH-11" target="aE1tdGKyQat_Dk-pjLRH-3" edge="1">
                    <mxGeometry relative="1" as="geometry"/>
                </mxCell>
                <mxCell id="aE1tdGKyQat_Dk-pjLRH-15" style="edgeStyle=orthogonalEdgeStyle;rounded=0;orthogonalLoop=1;jettySize=auto;html=1;entryX=1;entryY=0.5;entryDx=0;entryDy=0;sketch=1;curved=1;strokeColor=#808080;" parent="aE1tdGKyQat_Dk-pjLRH-1" source="aE1tdGKyQat_Dk-pjLRH-13" target="aE1tdGKyQat_Dk-pjLRH-7" edge="1">
                    <mxGeometry relative="1" as="geometry"/>
                </mxCell>
            </root>
        </mxGraphModel>
    </diagram>
</mxfile>